<mxfile host="app.diagrams.net" agent="Mozilla/5.0 (Windows NT 10.0; Win64; x64) AppleWebKit/537.36 (KHTML, like Gecko) Chrome/132.0.0.0 Safari/537.36 OPR/117.0.0.0" version="26.2.8">
  <diagram name="Página-1" id="HebP2YsFb9xPkFGN-hMS">
    <mxGraphModel dx="1190" dy="1816" grid="1" gridSize="10" guides="1" tooltips="1" connect="1" arrows="1" fold="1" page="1" pageScale="1" pageWidth="827" pageHeight="1169" math="0" shadow="0">
      <root>
        <mxCell id="0" />
        <mxCell id="1" parent="0" />
        <mxCell id="KqUoMrk6EfnsMrQUpcPz-1" value="" style="edgeStyle=orthogonalEdgeStyle;rounded=0;orthogonalLoop=1;jettySize=auto;html=1;" edge="1" parent="1" source="KqUoMrk6EfnsMrQUpcPz-2" target="KqUoMrk6EfnsMrQUpcPz-4">
          <mxGeometry relative="1" as="geometry" />
        </mxCell>
        <mxCell id="KqUoMrk6EfnsMrQUpcPz-2" value="Início" style="rounded=1;whiteSpace=wrap;html=1;fontSize=12;glass=0;strokeWidth=1;shadow=0;" vertex="1" parent="1">
          <mxGeometry x="92.5" y="-1140" width="60" height="40" as="geometry" />
        </mxCell>
        <mxCell id="KqUoMrk6EfnsMrQUpcPz-12" value="" style="edgeStyle=orthogonalEdgeStyle;rounded=0;orthogonalLoop=1;jettySize=auto;html=1;" edge="1" parent="1" source="KqUoMrk6EfnsMrQUpcPz-4" target="KqUoMrk6EfnsMrQUpcPz-10">
          <mxGeometry relative="1" as="geometry" />
        </mxCell>
        <mxCell id="KqUoMrk6EfnsMrQUpcPz-4" value="&lt;div&gt;&lt;br&gt;&lt;/div&gt;&lt;div&gt;&lt;br&gt;&lt;/div&gt;Ler salário" style="shape=manualInput;whiteSpace=wrap;html=1;" vertex="1" parent="1">
          <mxGeometry x="77.5" y="-1010" width="90" height="60" as="geometry" />
        </mxCell>
        <mxCell id="KqUoMrk6EfnsMrQUpcPz-40" value="" style="edgeStyle=orthogonalEdgeStyle;rounded=0;orthogonalLoop=1;jettySize=auto;html=1;" edge="1" parent="1" source="KqUoMrk6EfnsMrQUpcPz-5" target="KqUoMrk6EfnsMrQUpcPz-39">
          <mxGeometry relative="1" as="geometry" />
        </mxCell>
        <mxCell id="KqUoMrk6EfnsMrQUpcPz-5" value="salário" style="shape=display;whiteSpace=wrap;html=1;" vertex="1" parent="1">
          <mxGeometry x="730" y="-601" width="80" height="40" as="geometry" />
        </mxCell>
        <mxCell id="KqUoMrk6EfnsMrQUpcPz-6" value="" style="edgeStyle=orthogonalEdgeStyle;rounded=0;orthogonalLoop=1;jettySize=auto;html=1;" edge="1" parent="1" source="KqUoMrk6EfnsMrQUpcPz-10">
          <mxGeometry relative="1" as="geometry">
            <mxPoint x="257.5" y="-811" as="targetPoint" />
          </mxGeometry>
        </mxCell>
        <mxCell id="KqUoMrk6EfnsMrQUpcPz-7" value="Verdadeiro" style="edgeLabel;html=1;align=center;verticalAlign=middle;resizable=0;points=[];" vertex="1" connectable="0" parent="KqUoMrk6EfnsMrQUpcPz-6">
          <mxGeometry x="-0.08" y="-1" relative="1" as="geometry">
            <mxPoint as="offset" />
          </mxGeometry>
        </mxCell>
        <mxCell id="KqUoMrk6EfnsMrQUpcPz-10" value="salário &amp;lt; 800" style="rhombus;whiteSpace=wrap;html=1;" vertex="1" parent="1">
          <mxGeometry x="72.5" y="-861" width="100" height="100" as="geometry" />
        </mxCell>
        <mxCell id="KqUoMrk6EfnsMrQUpcPz-36" style="edgeStyle=orthogonalEdgeStyle;rounded=0;orthogonalLoop=1;jettySize=auto;html=1;entryX=0.5;entryY=0;entryDx=0;entryDy=0;" edge="1" parent="1" source="KqUoMrk6EfnsMrQUpcPz-11" target="KqUoMrk6EfnsMrQUpcPz-34">
          <mxGeometry relative="1" as="geometry" />
        </mxCell>
        <mxCell id="KqUoMrk6EfnsMrQUpcPz-11" value="salário = salário * 1,15" style="rounded=0;whiteSpace=wrap;html=1;" vertex="1" parent="1">
          <mxGeometry x="257.5" y="-841" width="145" height="60" as="geometry" />
        </mxCell>
        <mxCell id="KqUoMrk6EfnsMrQUpcPz-23" value="800 &amp;lt;= salário &amp;lt;= 1500" style="rhombus;whiteSpace=wrap;html=1;" vertex="1" parent="1">
          <mxGeometry x="52.5" y="-651" width="140" height="140" as="geometry" />
        </mxCell>
        <mxCell id="KqUoMrk6EfnsMrQUpcPz-35" style="edgeStyle=orthogonalEdgeStyle;rounded=0;orthogonalLoop=1;jettySize=auto;html=1;exitX=1;exitY=0.5;exitDx=0;exitDy=0;entryX=0;entryY=0.5;entryDx=0;entryDy=0;" edge="1" parent="1" source="KqUoMrk6EfnsMrQUpcPz-24" target="KqUoMrk6EfnsMrQUpcPz-34">
          <mxGeometry relative="1" as="geometry" />
        </mxCell>
        <mxCell id="KqUoMrk6EfnsMrQUpcPz-24" value="salário = salário * 1,1" style="rounded=0;whiteSpace=wrap;html=1;" vertex="1" parent="1">
          <mxGeometry x="276.5" y="-611" width="145" height="60" as="geometry" />
        </mxCell>
        <mxCell id="KqUoMrk6EfnsMrQUpcPz-27" value="" style="edgeStyle=orthogonalEdgeStyle;rounded=0;orthogonalLoop=1;jettySize=auto;html=1;" edge="1" parent="1">
          <mxGeometry relative="1" as="geometry">
            <mxPoint x="122" y="-651" as="targetPoint" />
            <mxPoint x="122" y="-761" as="sourcePoint" />
          </mxGeometry>
        </mxCell>
        <mxCell id="KqUoMrk6EfnsMrQUpcPz-28" value="Falso" style="edgeLabel;html=1;align=center;verticalAlign=middle;resizable=0;points=[];" vertex="1" connectable="0" parent="KqUoMrk6EfnsMrQUpcPz-27">
          <mxGeometry x="-0.02" y="-2" relative="1" as="geometry">
            <mxPoint as="offset" />
          </mxGeometry>
        </mxCell>
        <mxCell id="KqUoMrk6EfnsMrQUpcPz-29" value="" style="edgeStyle=orthogonalEdgeStyle;rounded=0;orthogonalLoop=1;jettySize=auto;html=1;" edge="1" parent="1">
          <mxGeometry relative="1" as="geometry">
            <mxPoint x="122" y="-401" as="targetPoint" />
            <mxPoint x="122" y="-511" as="sourcePoint" />
          </mxGeometry>
        </mxCell>
        <mxCell id="KqUoMrk6EfnsMrQUpcPz-30" value="Falso" style="edgeLabel;html=1;align=center;verticalAlign=middle;resizable=0;points=[];" vertex="1" connectable="0" parent="KqUoMrk6EfnsMrQUpcPz-29">
          <mxGeometry x="-0.02" y="-2" relative="1" as="geometry">
            <mxPoint as="offset" />
          </mxGeometry>
        </mxCell>
        <mxCell id="KqUoMrk6EfnsMrQUpcPz-31" value="" style="edgeStyle=orthogonalEdgeStyle;rounded=0;orthogonalLoop=1;jettySize=auto;html=1;" edge="1" parent="1">
          <mxGeometry relative="1" as="geometry">
            <mxPoint x="276.5" y="-581.5" as="targetPoint" />
            <mxPoint x="191.5" y="-581.5" as="sourcePoint" />
          </mxGeometry>
        </mxCell>
        <mxCell id="KqUoMrk6EfnsMrQUpcPz-32" value="Verdadeiro" style="edgeLabel;html=1;align=center;verticalAlign=middle;resizable=0;points=[];" vertex="1" connectable="0" parent="KqUoMrk6EfnsMrQUpcPz-31">
          <mxGeometry x="-0.08" y="-1" relative="1" as="geometry">
            <mxPoint as="offset" />
          </mxGeometry>
        </mxCell>
        <mxCell id="KqUoMrk6EfnsMrQUpcPz-37" style="edgeStyle=orthogonalEdgeStyle;rounded=0;orthogonalLoop=1;jettySize=auto;html=1;entryX=0.5;entryY=1;entryDx=0;entryDy=0;" edge="1" parent="1" source="KqUoMrk6EfnsMrQUpcPz-33" target="KqUoMrk6EfnsMrQUpcPz-34">
          <mxGeometry relative="1" as="geometry" />
        </mxCell>
        <mxCell id="KqUoMrk6EfnsMrQUpcPz-33" value="salário = salário * 1,05" style="rounded=0;whiteSpace=wrap;html=1;" vertex="1" parent="1">
          <mxGeometry x="50" y="-401" width="145" height="60" as="geometry" />
        </mxCell>
        <mxCell id="KqUoMrk6EfnsMrQUpcPz-38" value="" style="edgeStyle=orthogonalEdgeStyle;rounded=0;orthogonalLoop=1;jettySize=auto;html=1;" edge="1" parent="1" source="KqUoMrk6EfnsMrQUpcPz-34" target="KqUoMrk6EfnsMrQUpcPz-5">
          <mxGeometry relative="1" as="geometry" />
        </mxCell>
        <mxCell id="KqUoMrk6EfnsMrQUpcPz-34" value="" style="ellipse;whiteSpace=wrap;html=1;aspect=fixed;" vertex="1" parent="1">
          <mxGeometry x="602.5" y="-601" width="40" height="40" as="geometry" />
        </mxCell>
        <mxCell id="KqUoMrk6EfnsMrQUpcPz-39" value="Fim" style="rounded=1;whiteSpace=wrap;html=1;fontSize=12;glass=0;strokeWidth=1;shadow=0;" vertex="1" parent="1">
          <mxGeometry x="740" y="-490" width="60" height="40" as="geometry" />
        </mxCell>
      </root>
    </mxGraphModel>
  </diagram>
</mxfile>
